<?xml version="1.0" standalone="no"?>
<!DOCTYPE svg PUBLIC "-//W3C//DTD SVG 20010904//EN"
 "http://www.w3.org/TR/2001/REC-SVG-20010904/DTD/svg10.dtd">
<svg version="1.0" xmlns="http://www.w3.org/2000/svg"
 width="512.000000pt" height="512.000000pt" viewBox="0 0 512.000000 512.000000"
 preserveAspectRatio="xMidYMid meet">
<metadata>
Created by potrace 1.14, written by Peter Selinger 2001-2017
</metadata>
<g transform="translate(0.000000,512.000000) scale(0.100000,-0.100000)"
fill="#000000" stroke="none">
<path d="M2848 5115 c-2 -2 -37 -6 -78 -9 -567 -50 -1144 -317 -1550 -717
-259 -255 -464 -567 -598 -911 -37 -95 -94 -277 -106 -338 -2 -14 -11 -57 -20
-96 -8 -39 -18 -100 -22 -135 -3 -35 -9 -68 -11 -73 -9 -15 -11 -418 -3 -486
5 -36 11 -85 13 -110 7 -60 26 -176 32 -192 2 -7 6 -24 9 -38 26 -155 140
-464 238 -648 117 -221 306 -477 453 -616 16 -15 59 -55 94 -89 138 -129 367
-285 566 -385 228 -114 540 -215 735 -238 30 -3 58 -8 62 -11 28 -16 430 -24
574 -10 479 43 1151 311 1383 551 25 25 43 47 40 50 -2 2 -53 -12 -114 -31
-192 -61 -232 -71 -246 -62 -11 6 -14 66 -15 294 -1 253 -3 288 -18 303 -14
14 -38 17 -163 16 -126 -2 -148 -4 -159 -19 -10 -13 -13 -92 -14 -318 0 -165
-3 -304 -6 -309 -18 -28 -24 23 -24 192 0 214 -2 219 -73 221 -23 0 -346 0
-717 0 -636 -1 -720 2 -697 26 5 4 334 8 732 8 807 0 748 -5 761 71 5 34 2 45
-21 72 -15 18 -40 35 -56 39 -49 13 -1443 7 -1468 -6 -12 -7 -26 -31 -34 -58
-14 -47 -40 -74 -32 -33 9 46 -38 110 -81 110 -48 0 -31 17 19 19 134 6 175 9
194 15 30 10 51 70 49 141 -4 107 -45 163 -172 234 -44 24 -89 52 -101 63
l-22 20 -33 -24 c-18 -14 -63 -41 -99 -61 -37 -20 -81 -50 -99 -67 -38 -35
-34 -34 -54 -14 -10 9 -16 33 -16 57 0 23 -3 59 -6 79 -6 33 -11 38 -40 44
-31 6 -58 24 -36 24 5 0 23 14 41 30 22 21 31 39 31 61 0 76 -97 159 -189 161
-61 2 -82 100 -41 193 74 169 55 272 -73 413 -47 50 -67 81 -68 100 -5 123 5
403 15 421 2 3 7 32 10 63 13 112 74 336 133 483 33 84 128 273 176 350 230
371 555 666 942 855 236 116 492 191 745 221 58 6 109 15 113 19 9 8 -133 44
-213 55 -25 3 -56 8 -70 10 -70 13 -121 17 -302 20 -108 1 -198 2 -200 0z"/>
<path d="M3072 2660 c-35 -56 -97 -100 -220 -156 -325 -150 -479 -381 -441
-660 15 -110 65 -236 101 -255 33 -18 1147 -18 1181 0 33 18 84 140 101 241
47 282 -98 505 -437 670 -156 77 -196 107 -238 181 l-16 29 -31 -50z"/>
<path d="M3996 1611 c-9 -10 -53 -38 -97 -62 -52 -28 -94 -59 -117 -87 -38
-46 -64 -124 -56 -169 2 -16 6 -42 9 -60 3 -18 17 -41 31 -52 24 -19 40 -20
252 -19 125 1 239 5 253 10 35 12 52 50 55 128 4 114 -42 178 -189 258 -43 24
-81 50 -84 58 -7 20 -37 18 -57 -5z"/>
<path d="M2531 1538 c-24 -8 -27 -23 -8 -35 6 -4 271 -8 589 -9 561 -2 576 -2
581 17 3 12 -1 23 -12 28 -21 11 -1120 11 -1150 -1z"/>
<path d="M2553 1458 c-14 -4 -30 -13 -34 -20 -5 -7 -9 -66 -9 -130 0 -104 2
-119 20 -136 19 -17 49 -18 571 -20 l551 -1 22 22 c20 20 22 31 21 139 -1 97
-4 121 -18 135 -15 16 -62 17 -557 18 -297 0 -552 -3 -567 -7z m47 -28 c10 -6
17 -33 20 -89 8 -132 -7 -179 -54 -162 -27 10 -33 39 -30 145 2 73 5 92 20
103 21 15 24 16 44 3z m147 -23 c5 -12 9 -64 8 -116 -1 -77 -5 -96 -19 -107
-25 -18 -59 -3 -68 31 -4 16 -6 67 -4 114 3 64 8 87 20 97 23 16 51 7 63 -19z
m125 9 c4 -6 8 -56 8 -111 0 -108 -3 -119 -37 -127 -36 -9 -46 15 -48 110 -2
87 7 131 27 143 13 8 40 0 50 -15z m139 -24 c6 -135 2 -195 -15 -208 -19 -13
-46 -8 -58 10 -4 6 -8 56 -8 111 0 55 4 105 8 111 22 33 71 17 73 -24z m129
-87 c0 -65 -4 -105 -12 -113 -15 -15 -55 -16 -64 -1 -9 15 -9 177 -1 211 8 31
35 40 60 20 14 -13 17 -32 17 -117z m132 10 c3 -107 -4 -135 -35 -135 -44 0
-47 8 -47 121 0 99 2 109 22 123 15 11 26 12 39 6 15 -9 18 -27 21 -115z m255
87 c3 -14 6 -55 6 -91 0 -119 -1 -120 -30 -127 -42 -11 -53 15 -53 123 0 79 3
96 20 113 24 24 48 17 57 -18z m131 -1 c6 -15 9 -67 8 -115 -2 -95 -15 -120
-57 -109 -25 7 -33 40 -33 142 1 75 3 86 23 102 27 22 47 16 59 -20z m-262 -8
c9 -48 10 -174 1 -196 -3 -9 -17 -17 -29 -17 -45 0 -51 13 -52 106 -1 121 6
144 44 144 26 0 30 -4 36 -37z"/>
</g>
</svg>
